<?xml version="1.0" encoding="UTF-8"?>
<svg id="Layer_1" xmlns="http://www.w3.org/2000/svg" width="600" height="600" version="1.1" viewBox="0 0 600 600">
  <!-- Generator: Adobe Illustrator 29.8.2, SVG Export Plug-In . SVG Version: 2.1.1 Build 3)  -->
  <defs>
    <style>
      .st0 {
        fill: #fff;
        fill-rule: evenodd;
      }

      .st1 {
        fill: #031c86;
        stroke: #000;
        stroke-miterlimit: 10;
      }
    </style>
  </defs>
  <g id="Layer_2">
    <circle class="st1" cx="300" cy="300" r="300"/>
    <path class="st0" d="M394.86,337.94c36.67-36.67,36.67-96.13,0-132.8-36.67-36.67-96.13-36.67-132.8,0-24.35,24.35-32.53,58.75-24.55,89.85,1.29,5.02.14,10.44-3.52,14.1l-50.47,50.47c-4.32,4.32-6.45,10.38-5.77,16.45l3.16,28.4c.34,3.03,1.69,5.85,3.85,8l2.83,2.83c2.15,2.15,4.98,3.51,8,3.85l28.4,3.15c6.08.68,12.13-1.45,16.45-5.77l9.65-9.65-23.74-23.48c-4-3.96-4.04-10.42-.08-14.42,3.96-4,10.42-4.04,14.42-.08l23.82,23.56,26.4-26.4c3.66-3.66,9.08-4.8,14.1-3.51,31.1,7.99,65.5-.2,89.85-24.55ZM307.96,253.58c10.62-10.62,27.84-10.62,38.46,0,10.62,10.62,10.62,27.84,0,38.46-10.62,10.62-27.84,10.62-38.46,0-10.62-10.62-10.62-27.84,0-38.46Z"/>
  </g>
</svg>